<svg width="700" height="700" viewBox="0 0 700 700" fill="none" xmlns="http://www.w3.org/2000/svg">
<rect width="700" height="700" fill="#33BC84"/>
<path fill-rule="evenodd" clip-rule="evenodd" d="M426.049 189.218C408.69 200.05 392.635 217.402 377.889 241.304L349.049 293.105C337.479 314.574 327.584 330.25 319.369 340.144C290.81 376.73 263.928 400.714 238.728 412.105C210.353 425.175 177.498 426.289 140.169 415.464L120.849 409.862C127.009 379.432 138.954 351.901 156.689 327.26C160.423 321.475 164.993 315.315 170.408 308.787L225.568 318.018C227.064 318.389 228.462 318.119 229.767 317.19C231.263 316.065 232.103 314.76 232.286 313.264C232.661 311.776 232.38 310.373 231.447 309.065C230.325 307.764 229.021 306.92 227.525 306.549L179.923 298.424C192.989 284.994 208.204 272.397 225.564 260.623C235.83 254.279 247.404 247.748 260.283 241.021L300.885 253.345C302.381 253.716 303.779 253.529 305.084 252.787C306.58 252.029 307.603 250.915 308.162 249.415C308.533 247.74 308.346 246.247 307.603 244.943C306.857 243.634 305.642 242.704 303.963 242.142L275.682 233.454C285.948 228.783 299.295 223.38 315.721 217.216C317.217 216.845 318.33 215.818 319.08 214.142C319.639 212.834 319.639 211.431 319.08 209.943C318.709 208.443 317.775 207.33 316.279 206.584C314.783 205.826 313.295 205.826 311.799 206.584C291.822 213.673 273.721 221.33 257.479 229.545H257.198C248.799 233.642 240.495 238.22 232.276 243.26L243.475 202.948C243.85 201.448 243.666 200.045 242.916 198.748C242.166 197.061 241.053 196.038 239.557 195.663C237.877 195.291 236.381 195.479 235.076 196.221C233.58 197.163 232.65 198.377 232.275 199.862L217.435 252.221C197.091 266.037 179.357 281.436 164.236 298.42L163.955 298.705L156.396 307.943L152.756 263.416C152.756 261.928 152.197 260.615 151.076 259.502C149.771 258.572 148.373 258.194 146.877 258.389C145.197 258.389 143.893 258.947 142.955 260.065C141.834 261.373 141.365 262.776 141.557 264.264L145.756 322.225C131.01 343.51 119.994 367.311 112.717 393.623C101.885 366.564 97.0369 338.838 98.1579 310.463C100.767 252.225 123.357 205.563 165.92 170.463C208.104 135.19 255.705 120.432 308.72 126.225C356.888 131.819 395.993 152.819 426.05 189.217L426.049 189.218ZM460.768 287.503C489.139 274.433 521.995 273.319 559.327 284.143L578.647 289.745C572.678 319.983 560.823 347.515 543.088 372.347C539.166 378.132 534.502 384.292 529.088 390.82L473.647 381.589C472.151 381.394 470.752 381.679 469.448 382.417C468.326 383.542 467.584 384.847 467.209 386.343C467.026 387.832 467.303 389.234 468.049 390.542C468.983 392.031 470.194 392.871 471.69 393.058L519.569 401.183C506.69 414.613 491.475 427.21 473.928 438.984C461.791 446.257 450.225 452.789 439.209 458.586L398.889 446.262C397.209 445.891 395.721 446.078 394.408 446.821C393.103 447.578 392.17 448.692 391.607 450.192C391.232 451.868 391.424 453.36 392.166 454.664C392.912 455.973 394.029 456.903 395.525 457.465L424.084 466.153C413.818 470.813 400.475 476.227 384.045 482.391C382.366 482.762 381.151 483.691 380.405 485.191C379.846 486.68 379.846 488.176 380.405 489.664C380.776 491.164 381.803 492.277 383.483 493.024C384.788 493.594 386.186 493.594 387.682 493.024C406.912 486.309 425.112 478.653 442.284 470.063H442.565C450.776 465.965 459.085 461.387 467.487 456.348L455.725 496.95C455.35 498.438 455.534 499.934 456.284 501.422C457.217 502.922 458.428 503.852 459.924 504.223C461.421 504.594 462.909 504.407 464.405 503.665C465.901 502.735 466.831 501.52 467.206 500.024L482.046 447.395C502.39 433.579 520.222 418.18 535.526 401.196L535.807 400.626L543.366 391.665L546.725 436.466C546.725 437.966 547.284 439.267 548.405 440.392C549.901 441.321 551.389 441.692 552.885 441.505C554.381 441.505 555.686 440.946 556.807 439.817C557.928 438.516 558.303 437.118 557.928 435.618L553.729 377.391C568.663 356.289 579.674 332.489 586.768 305.993C597.776 333.052 602.729 360.778 601.608 389.153C598.624 447.391 576.034 494.053 533.846 529.153C491.475 564.426 443.877 579.184 391.046 573.391C342.702 567.789 303.589 546.789 273.726 510.391C291.085 499.375 307.046 482.012 321.605 458.305L350.445 406.504C362.207 384.664 372.101 368.988 380.125 359.465C408.32 323.434 435.195 299.449 460.77 287.504L460.768 287.503Z" fill="white"/>
</svg>
