<svg width="504" height="450" viewBox="0 0 504 450" fill="none" xmlns="http://www.w3.org/2000/svg">
<path fill-rule="evenodd" clip-rule="evenodd" d="M328.049 64.2176C310.69 75.0496 294.635 92.4016 279.889 116.304L251.049 168.105C239.479 189.574 229.584 205.25 221.369 215.144C192.81 251.73 165.928 275.714 140.728 287.105C112.353 300.175 79.4977 301.289 42.1687 290.464L22.8487 284.862C29.0089 254.432 40.9537 226.901 58.6887 202.26C62.4231 196.475 66.9934 190.315 72.4077 183.787L127.568 193.018C129.064 193.389 130.462 193.119 131.767 192.19C133.263 191.065 134.103 189.76 134.286 188.264C134.661 186.776 134.38 185.373 133.447 184.065C132.325 182.764 131.021 181.92 129.525 181.549L81.9227 173.424C94.9887 159.994 110.204 147.397 127.564 135.623C137.83 129.279 149.404 122.748 162.283 116.021L202.885 128.345C204.381 128.716 205.779 128.529 207.084 127.787C208.58 127.029 209.603 125.915 210.162 124.415C210.533 122.74 210.346 121.247 209.603 119.943C208.857 118.634 207.642 117.704 205.963 117.142L177.682 108.454C187.948 103.783 201.295 98.3805 217.721 92.2165C219.217 91.8454 220.33 90.8181 221.08 89.1423C221.639 87.8337 221.639 86.4314 221.08 84.9431C220.709 83.4431 219.775 82.3298 218.279 81.5837C216.783 80.8259 215.295 80.8259 213.799 81.5837C193.822 88.6735 175.721 96.3297 159.479 104.545H159.198C150.799 108.642 142.495 113.22 134.276 118.26L145.475 77.9477C145.85 76.4477 145.666 75.0454 144.916 73.7485C144.166 72.061 143.053 71.0376 141.557 70.6626C139.877 70.2915 138.381 70.479 137.076 71.2212C135.58 72.1626 134.65 73.3774 134.275 74.8618L119.435 127.221C99.0913 141.037 81.3573 156.436 66.2363 173.42L65.9551 173.705L58.3965 182.943L54.7559 138.416C54.7559 136.928 54.1973 135.615 53.0762 134.502C51.7715 133.572 50.3731 133.194 48.877 133.389C47.1973 133.389 45.8926 133.947 44.9551 135.065C43.834 136.373 43.3653 137.776 43.5567 139.264L47.7559 197.225C33.0099 218.51 21.9939 242.311 14.7169 268.623C3.88488 241.564 -0.963116 213.838 0.157884 185.463C2.76728 127.225 25.3569 80.5628 67.9199 45.4628C110.104 10.1898 157.705 -4.56818 210.72 1.22482C258.888 6.81862 297.993 27.8188 328.05 64.2168L328.049 64.2176ZM362.768 162.503C391.139 149.433 423.995 148.319 461.327 159.143L480.647 164.745C474.678 194.983 462.823 222.515 445.088 247.347C441.166 253.132 436.502 259.292 431.088 265.82L375.647 256.589C374.151 256.394 372.752 256.679 371.448 257.417C370.326 258.542 369.584 259.847 369.209 261.343C369.026 262.832 369.303 264.234 370.049 265.542C370.983 267.031 372.194 267.871 373.69 268.058L421.569 276.183C408.69 289.613 393.475 302.21 375.928 313.984C363.791 321.257 352.225 327.789 341.209 333.586L300.889 321.262C299.209 320.891 297.721 321.078 296.408 321.821C295.103 322.578 294.17 323.692 293.607 325.192C293.232 326.868 293.424 328.36 294.166 329.664C294.912 330.973 296.029 331.903 297.525 332.465L326.084 341.153C315.818 345.813 302.475 351.227 286.045 357.391C284.366 357.762 283.151 358.691 282.405 360.191C281.846 361.68 281.846 363.176 282.405 364.664C282.776 366.164 283.803 367.277 285.483 368.024C286.788 368.594 288.186 368.594 289.682 368.024C308.912 361.309 327.112 353.653 344.284 345.063H344.565C352.776 340.965 361.085 336.387 369.487 331.348L357.725 371.95C357.35 373.438 357.534 374.934 358.284 376.422C359.217 377.922 360.428 378.852 361.924 379.223C363.421 379.594 364.909 379.407 366.405 378.665C367.901 377.735 368.831 376.52 369.206 375.024L384.046 322.395C404.39 308.579 422.222 293.18 437.526 276.196L437.807 275.626L445.366 266.665L448.725 311.466C448.725 312.966 449.284 314.267 450.405 315.392C451.901 316.321 453.389 316.692 454.885 316.505C456.381 316.505 457.686 315.946 458.807 314.817C459.928 313.516 460.303 312.118 459.928 310.618L455.729 252.391C470.663 231.289 481.674 207.489 488.768 180.993C499.776 208.052 504.729 235.778 503.608 264.153C500.624 322.391 478.034 369.053 435.846 404.153C393.475 439.426 345.877 454.184 293.046 448.391C244.702 442.789 205.589 421.789 175.726 385.391C193.085 374.375 209.046 357.012 223.605 333.305L252.445 281.504C264.207 259.664 274.101 243.988 282.125 234.465C310.32 198.434 337.195 174.449 362.77 162.504L362.768 162.503Z" fill="white"/>
</svg>
